REM DIRINDEX 1\2,1\3
REM DIRNAME folder01,folder02,folder03
TITLE ""
FILE "1381-1400.mp3" MP3
  TRACK 01 AUDIO
    TITLE "0:"
    INDEX 01 00:00:00
  TRACK 02 AUDIO
    TITLE "2:cjc039_1761"
    INDEX 01 00:00:27
  TRACK 03 AUDIO
    TITLE "0:"
    INDEX 01 00:01:38
  TRACK 04 AUDIO
    TITLE "3:cjc039_1762"
    INDEX 01 00:02:20
  TRACK 05 AUDIO
    TITLE "0:"
    INDEX 01 00:05:50
  TRACK 06 AUDIO
    TITLE "2:cjc039_1763"
    INDEX 01 00:07:19
  TRACK 07 AUDIO
    TITLE "0:"
    INDEX 01 00:08:48
  TRACK 08 AUDIO
    TITLE "3:cjc039_1764"
    INDEX 01 00:09:18
  TRACK 09 AUDIO
    TITLE "0:"
    INDEX 01 00:12:32
  TRACK 10 AUDIO
    TITLE "2:cjc039_1765"
    INDEX 01 00:14:09
  TRACK 11 AUDIO
    TITLE "0:"
    INDEX 01 00:15:27
  TRACK 12 AUDIO
    TITLE "3:cjc039_1766"
    INDEX 01 00:16:06
  TRACK 13 AUDIO
    TITLE "0:"
    INDEX 01 00:19:71
  TRACK 14 AUDIO
    TITLE "2:cjc039_1767"
    INDEX 01 00:21:45
  TRACK 15 AUDIO
    TITLE "0:"
    INDEX 01 00:22:62
  TRACK 16 AUDIO
    TITLE "3:cjc039_1768"
    INDEX 01 00:23:38
  TRACK 17 AUDIO
    TITLE "0:"
    INDEX 01 00:27:36
  TRACK 18 AUDIO
    TITLE "2:cjc039_1769"
    INDEX 01 00:29:11
  TRACK 19 AUDIO
    TITLE "0:"
    INDEX 01 00:30:20
  TRACK 20 AUDIO
    TITLE "3:cjc039_1770"
    INDEX 01 00:30:73
  TRACK 21 AUDIO
    TITLE "0:"
    INDEX 01 00:33:56
  TRACK 22 AUDIO
    TITLE "2:cjc039_1771"
    INDEX 01 00:35:31
  TRACK 23 AUDIO
    TITLE "0:"
    INDEX 01 00:36:48
  TRACK 24 AUDIO
    TITLE "3:cjc039_1772"
    INDEX 01 00:37:22
  TRACK 25 AUDIO
    TITLE "0:"
    INDEX 01 00:40:54
  TRACK 26 AUDIO
    TITLE "2:cjc039_1773"
    INDEX 01 00:42:25
  TRACK 27 AUDIO
    TITLE "0:"
    INDEX 01 00:43:29
  TRACK 28 AUDIO
    TITLE "3:cjc039_1774"
    INDEX 01 00:44:09
  TRACK 29 AUDIO
    TITLE "0:"
    INDEX 01 00:46:68
  TRACK 30 AUDIO
    TITLE "2:cjc039_1775"
    INDEX 01 00:48:48
  TRACK 31 AUDIO
    TITLE "0:"
    INDEX 01 00:49:65
  TRACK 32 AUDIO
    TITLE "3:cjc039_1776"
    INDEX 01 00:50:42
  TRACK 33 AUDIO
    TITLE "0:"
    INDEX 01 00:54:05
  TRACK 34 AUDIO
    TITLE "2:cjc039_1777"
    INDEX 01 00:55:57
  TRACK 35 AUDIO
    TITLE "0:"
    INDEX 01 00:56:65
  TRACK 36 AUDIO
    TITLE "3:cjc039_1778"
    INDEX 01 00:57:41
  TRACK 37 AUDIO
    TITLE "0:"
    INDEX 01 01:00:47
  TRACK 38 AUDIO
    TITLE "2:cjc039_1779"
    INDEX 01 01:02:26
  TRACK 39 AUDIO
    TITLE "0:"
    INDEX 01 01:03:53
  TRACK 40 AUDIO
    TITLE "3:cjc039_1780"
    INDEX 01 01:04:31
  TRACK 41 AUDIO
    TITLE "0:"
    INDEX 01 01:09:03
  TRACK 42 AUDIO
    TITLE "2:cjc039_1781"
    INDEX 01 01:10:53
  TRACK 43 AUDIO
    TITLE "0:"
    INDEX 01 01:11:62
  TRACK 44 AUDIO
    TITLE "3:cjc039_1782"
    INDEX 01 01:12:38
  TRACK 45 AUDIO
    TITLE "0:"
    INDEX 01 01:15:60
  TRACK 46 AUDIO
    TITLE "2:cjc039_1783"
    INDEX 01 01:17:39
  TRACK 47 AUDIO
    TITLE "0:"
    INDEX 01 01:18:47
  TRACK 48 AUDIO
    TITLE "3:cjc039_1784"
    INDEX 01 01:19:23
  TRACK 49 AUDIO
    TITLE "0:"
    INDEX 01 01:23:32
  TRACK 50 AUDIO
    TITLE "2:cjc039_1785"
    INDEX 01 01:25:08
  TRACK 51 AUDIO
    TITLE "0:"
    INDEX 01 01:26:23
  TRACK 52 AUDIO
    TITLE "3:cjc039_1786"
    INDEX 01 01:26:70
  TRACK 53 AUDIO
    TITLE "0:"
    INDEX 01 01:30:42
  TRACK 54 AUDIO
    TITLE "2:cjc039_1787"
    INDEX 01 01:32:15
  TRACK 55 AUDIO
    TITLE "0:"
    INDEX 01 01:33:38
  TRACK 56 AUDIO
    TITLE "3:cjc039_1788"
    INDEX 01 01:34:12
  TRACK 57 AUDIO
    TITLE "0:"
    INDEX 01 01:37:56
  TRACK 58 AUDIO
    TITLE "2:cjc039_1789"
    INDEX 01 01:39:31
  TRACK 59 AUDIO
    TITLE "0:"
    INDEX 01 01:40:38
  TRACK 60 AUDIO
    TITLE "3:cjc039_1790"
    INDEX 01 01:41:18
  TRACK 61 AUDIO
    TITLE "0:"
    INDEX 01 01:43:74
  TRACK 62 AUDIO
    TITLE "2:cjc039_1791"
    INDEX 01 01:45:51
  TRACK 63 AUDIO
    TITLE "0:"
    INDEX 01 01:47:03
  TRACK 64 AUDIO
    TITLE "3:cjc039_1792"
    INDEX 01 01:47:52
  TRACK 65 AUDIO
    TITLE "0:"
    INDEX 01 01:51:27
  TRACK 66 AUDIO
    TITLE "2:cjc039_1793"
    INDEX 01 01:52:73
  TRACK 67 AUDIO
    TITLE "0:"
    INDEX 01 01:53:74
  TRACK 68 AUDIO
    TITLE "3:cjc039_1794"
    INDEX 01 01:54:52
  TRACK 69 AUDIO
    TITLE "0:"
    INDEX 01 01:57:74
  TRACK 70 AUDIO
    TITLE "2:cjc039_1795"
    INDEX 01 01:59:46
  TRACK 71 AUDIO
    TITLE "0:"
    INDEX 01 02:00:63
  TRACK 72 AUDIO
    TITLE "3:cjc039_1796"
    INDEX 01 02:01:41
  TRACK 73 AUDIO
    TITLE "0:"
    INDEX 01 02:05:09
  TRACK 74 AUDIO
    TITLE "2:cjc039_1797"
    INDEX 01 02:06:57
  TRACK 75 AUDIO
    TITLE "0:"
    INDEX 01 02:08:00
  TRACK 76 AUDIO
    TITLE "3:cjc039_1798"
    INDEX 01 02:08:52
  TRACK 77 AUDIO
    TITLE "0:"
    INDEX 01 02:12:17
  TRACK 78 AUDIO
    TITLE "2:cjc039_1799"
    INDEX 01 02:13:63
  TRACK 79 AUDIO
    TITLE "0:"
    INDEX 01 02:14:71
  TRACK 80 AUDIO
    TITLE "3:cjc039_1800"
    INDEX 01 02:15:43
  TRACK 81 AUDIO
    TITLE "0:"
    INDEX 01 02:18:65
